<svg width="64" height="64" viewBox="0 0 64 64" fill="none" xmlns="http://www.w3.org/2000/svg">
<rect width="64" height="64" rx="16" fill="white"/>
<rect x="6" y="6" width="52" height="52" rx="14" stroke="#E5E7EB" stroke-width="2"/>
<g shape-rendering="crispEdges">
  <rect x="20" y="10" width="4" height="4" fill="#111827"/>
  <rect x="24" y="14" width="4" height="4" fill="#111827"/>
  <rect x="40" y="10" width="4" height="4" fill="#111827"/>
  <rect x="36" y="14" width="4" height="4" fill="#111827"/>

  <rect x="16" y="18" width="32" height="4" fill="#111827"/>
  <rect x="12" y="22" width="4" height="16" fill="#111827"/>
  <rect x="48" y="22" width="4" height="16" fill="#111827"/>
  <rect x="16" y="38" width="32" height="4" fill="#111827"/>

  <rect x="16" y="22" width="32" height="16" fill="#FF8B72"/>
  <rect x="24" y="26" width="4" height="4" fill="#111827"/>
  <rect x="36" y="26" width="4" height="4" fill="#111827"/>
  <rect x="28" y="34" width="8" height="4" fill="white"/>

  <rect x="8" y="26" width="4" height="4" fill="#111827"/>
  <rect x="52" y="26" width="4" height="4" fill="#111827"/>

  <rect x="20" y="42" width="4" height="4" fill="#111827"/>
  <rect x="40" y="42" width="4" height="4" fill="#111827"/>
  <rect x="18" y="46" width="28" height="4" fill="#E65041"/>
  <rect x="22" y="50" width="4" height="4" fill="#111827"/>
  <rect x="38" y="50" width="4" height="4" fill="#111827"/>
</g>
</svg>
