<svg width="32" height="32" viewBox="0 0 32 32" fill="none" xmlns="http://www.w3.org/2000/svg">
<g clip-path="url(#clip0_40_2859)">
<rect width="32" height="32" rx="8" fill="#4D6AD6" style="fill:#4D6AD6;fill:color(display-p3 0.3020 0.4157 0.8392);fill-opacity:1;"/>
<path d="M4.34162 20.9312C4.5121 20.9312 4.67054 20.924 4.82738 20.9356C4.8723 20.9392 4.92926 20.989 4.95293 21.0327C5.06123 21.2324 5.15389 21.4406 5.26259 21.6404C5.38012 21.8566 5.50928 22.0664 5.63322 22.279C5.70622 22.4041 5.77241 22.5341 5.85344 22.654C6.01549 22.8939 6.17393 23.1374 6.35523 23.3624C6.65848 23.7386 6.95651 24.1233 7.29706 24.4639C7.68735 24.8541 8.11413 25.2099 8.53932 25.5637C9.16587 26.0856 9.861 26.5063 10.5902 26.8677C10.9853 27.0639 11.3885 27.2472 11.8008 27.4028C12.1514 27.5352 12.52 27.6214 12.8814 27.7253C13.1169 27.7927 13.3519 27.8617 13.5902 27.9175C13.743 27.9532 13.9015 27.9632 14.0567 27.9897C14.2175 28.0169 14.3776 28.0498 14.5376 28.0807C14.5625 28.0855 14.5866 28.0976 14.6114 28.0992C14.8272 28.1148 15.043 28.1381 15.2592 28.1409C15.7273 28.1473 16.1959 28.1477 16.664 28.1409C16.9315 28.1373 17.1995 28.1249 17.4654 28.0976C17.6519 28.0783 17.8348 28.0242 18.0201 27.9905C18.2187 27.9544 18.4205 27.9339 18.617 27.8902C19.1072 27.7811 19.5869 27.6383 20.0626 27.4726C20.4746 27.329 20.8809 27.1754 21.272 26.9861C21.6414 26.8068 22.002 26.6066 22.3566 26.3996C22.6354 26.2368 22.9045 26.0555 23.1693 25.8702C23.3666 25.7322 23.558 25.5826 23.7393 25.4241C24.0734 25.1317 24.4095 24.8401 24.724 24.5276C25.1127 24.1422 25.4625 23.7222 25.7942 23.2842C26.0441 22.9548 26.2619 22.6071 26.4865 22.2629C26.6093 22.0744 26.7079 21.8698 26.8138 21.6709C26.941 21.4314 27.0645 21.1899 27.1969 20.9356C27.3834 20.9296 27.578 20.9103 27.8002 20.9533C27.7509 21.0656 27.7148 21.1578 27.6706 21.2457C27.5411 21.506 27.4151 21.7683 27.2747 22.023C27.1155 22.3115 26.9518 22.5987 26.7729 22.8746C26.5976 23.145 26.4063 23.4061 26.211 23.6628C26.0116 23.9247 25.8102 24.1867 25.5892 24.4302C25.3329 24.7121 25.061 24.9813 24.7834 25.2428C24.4966 25.5132 24.2026 25.7771 23.8965 26.0254C23.6558 26.2207 23.3907 26.386 23.1388 26.5677C22.6747 26.9022 22.1689 27.1678 21.6627 27.4277C21.2945 27.6166 20.901 27.759 20.5127 27.9054C20.1493 28.0426 19.7794 28.1634 19.4088 28.2797C19.2359 28.3338 19.0538 28.3595 18.8761 28.3992C18.6443 28.4514 18.4144 28.5127 18.181 28.5553C18.0193 28.5849 17.8505 28.5773 17.6892 28.609C17.3527 28.6756 17.0053 28.6343 16.6708 28.7173C16.6283 28.7277 16.5813 28.7205 16.5364 28.7205C16.2283 28.7205 15.9203 28.7277 15.6126 28.7185C15.3335 28.7101 15.0515 28.7049 14.7771 28.6591C14.5076 28.6142 14.238 28.5889 13.9672 28.5613C13.7635 28.5404 13.5641 28.4746 13.3628 28.4293C13.2825 28.4112 13.2007 28.3984 13.1213 28.3776C12.8549 28.307 12.5858 28.2452 12.3247 28.1589C11.9617 28.039 11.6035 27.9042 11.2461 27.7687C10.9813 27.668 10.7158 27.5657 10.4599 27.445C10.22 27.3314 9.99096 27.1959 9.76032 27.0639C9.30265 26.802 8.8558 26.5224 8.43784 26.1991C8.19636 26.0126 7.95409 25.8268 7.71502 25.6371C7.63079 25.5701 7.55417 25.4935 7.47676 25.4185C7.25695 25.2063 7.0267 25.0038 6.82213 24.7779C6.43425 24.3495 6.03434 23.9304 5.71585 23.4434C5.51168 23.1313 5.28385 22.8345 5.09211 22.5156C4.89396 22.1859 4.72309 21.8389 4.54699 21.4964C4.47279 21.3516 4.41382 21.1988 4.35125 21.0483C4.34002 21.0219 4.34523 20.9886 4.34082 20.9308L4.34162 20.9312Z" fill="white" style="fill:white;fill-opacity:1;"/>
<path d="M4.61096 10.4328C4.62059 10.2222 4.73009 10.0922 4.80591 9.95061C5.05339 9.48692 5.32335 9.03526 5.63381 8.61248C6.07023 8.01843 6.53151 7.44283 7.07222 6.93702C7.34659 6.6803 7.60932 6.40914 7.90093 6.17329C8.35981 5.80225 8.83473 5.45007 9.33974 5.14121C9.81506 4.8504 10.3016 4.57884 10.8126 4.35943C11.2687 4.16369 11.7412 4.00605 12.2077 3.83517C12.3898 3.76819 12.5736 3.7024 12.7605 3.65106C12.9305 3.60453 13.1058 3.57765 13.2791 3.54356C13.5314 3.49382 13.7833 3.43967 14.0372 3.39876C14.2378 3.36667 14.4444 3.36787 14.6425 3.32696C14.9714 3.25917 15.3052 3.30249 15.6317 3.26157C15.821 3.23791 16.0131 3.19058 16.1964 3.22307C16.5262 3.28123 16.8571 3.25235 17.1856 3.28123C17.5053 3.30931 17.8206 3.39194 18.1407 3.41761C18.5398 3.4497 18.9144 3.58808 19.3067 3.64825C19.5462 3.68515 19.78 3.7742 20.0091 3.86004C20.4559 4.02811 20.9024 4.19859 21.3404 4.38912C22.1522 4.7421 22.9071 5.19737 23.6183 5.72163C24.0371 6.03009 24.4326 6.36823 24.8109 6.72723C25.3022 7.19413 25.7523 7.69513 26.1722 8.22701C26.4799 8.6165 26.7479 9.03045 27.0058 9.45162C27.1642 9.71034 27.3038 9.9807 27.4466 10.249C27.4703 10.2936 27.4663 10.3529 27.4791 10.4299C27.2938 10.4299 27.1349 10.4352 26.9765 10.4275C26.9035 10.4239 26.8598 10.3726 26.8245 10.3012C26.5998 9.84712 26.3383 9.41472 26.0355 9.00759C25.8497 8.75769 25.6833 8.49175 25.4807 8.25669C25.1895 7.91855 24.8794 7.59605 24.5662 7.27757C24.3516 7.05936 24.1245 6.85198 23.8907 6.65463C23.634 6.43803 23.3672 6.23225 23.0957 6.0345C22.8863 5.88208 22.6701 5.73687 22.4443 5.61052C22.0139 5.36865 21.5798 5.13319 21.1386 4.91217C20.6144 4.64984 20.06 4.45771 19.4993 4.29084C19.1804 4.19618 18.8514 4.13521 18.5261 4.06221C18.2758 4.00605 18.0259 3.94307 17.7724 3.90457C17.5586 3.87208 17.338 3.88491 17.1242 3.85202C16.598 3.77099 16.0693 3.78824 15.5414 3.79947C15.2265 3.80629 14.9129 3.85723 14.5988 3.88892C14.4095 3.90818 14.2201 3.92623 14.0316 3.9511C13.9265 3.96473 13.8222 3.988 13.7187 4.01287C13.3529 4.10151 12.9839 4.18053 12.6229 4.28603C12.2924 4.3823 11.9683 4.50343 11.6446 4.62217C11.0682 4.83315 10.5198 5.10551 9.98835 5.41116C9.34375 5.7818 8.73124 6.19896 8.17168 6.68993C7.87566 6.94985 7.57562 7.20777 7.30326 7.49176C6.89372 7.91895 6.51386 8.37262 6.16529 8.85316C5.82515 9.32246 5.52431 9.81463 5.24914 10.3233C5.20943 10.3967 5.16089 10.4396 5.06864 10.4348C4.92303 10.4271 4.77662 10.4328 4.61136 10.4328H4.61096Z" fill="white" style="fill:white;fill-opacity:1;"/>
<path d="M2.5222 20.9396H2.89724C2.98268 21.1338 3.0613 21.3179 3.14433 21.5004C3.28553 21.8101 3.41549 22.1261 3.57634 22.4254C3.78853 22.8193 4.01997 23.2035 4.25503 23.585C4.54504 24.0555 4.88518 24.4907 5.23576 24.9179C5.6802 25.4598 6.16234 25.9612 6.68821 26.4265C7.07529 26.7691 7.47159 27.0992 7.89236 27.3968C8.40339 27.7586 8.92243 28.1108 9.49403 28.3768C9.91119 28.5709 10.3203 28.7835 10.7415 28.9684C11.1791 29.1609 11.6308 29.3214 12.0937 29.4417C12.433 29.53 12.7651 29.6415 13.1161 29.6944C13.4117 29.7389 13.7058 29.8091 14.0022 29.8621C14.3488 29.9239 14.7009 29.913 15.0443 29.962C15.6255 30.045 16.2047 29.9884 16.7843 30.0045C16.9207 30.0081 17.0579 29.968 17.1951 29.9531C17.3339 29.9383 17.4735 29.9299 17.6127 29.9191C17.6508 29.9162 17.6897 29.9183 17.7274 29.9122C17.9452 29.8777 18.1626 29.8424 18.3796 29.8059C18.4907 29.7871 18.601 29.7614 18.7125 29.745C19.23 29.6696 19.7326 29.5316 20.2291 29.3735C20.8946 29.1617 21.5508 28.9255 22.171 28.5994C22.4842 28.4345 22.8055 28.2829 23.1112 28.1052C23.4244 27.9235 23.7253 27.7205 24.0277 27.5208C24.6146 27.1337 25.1468 26.6772 25.6619 26.2015C25.8993 25.9821 26.1115 25.735 26.3354 25.5007C26.3795 25.4546 26.4272 25.4121 26.4709 25.3656C26.9852 24.816 27.4384 24.2188 27.8452 23.5862C28.1392 23.1289 28.4127 22.66 28.6394 22.1646C28.7573 21.9075 28.8833 21.6536 29.0024 21.3973C29.0473 21.3006 29.0955 21.2028 29.1223 21.1001C29.1612 20.9525 29.2543 20.9128 29.3911 20.9288C29.4412 20.9348 29.4922 20.9372 29.5688 20.9432C29.5559 21.0315 29.5616 21.1177 29.5307 21.1879C29.3401 21.6175 29.1444 22.0443 28.945 22.4699C28.7521 22.8818 28.5118 23.2673 28.2768 23.6564C28.004 24.1073 27.6923 24.53 27.3698 24.9428C26.9106 25.5308 26.3991 26.0763 25.8408 26.5729C25.4332 26.9351 25.0193 27.2933 24.5821 27.6178C24.1757 27.9195 23.7457 28.1946 23.3057 28.4453C22.8071 28.7293 22.2957 28.9969 21.7706 29.2271C21.329 29.4209 20.8782 29.603 20.4072 29.7249C20.189 29.7815 19.9764 29.8593 19.7598 29.9215C19.591 29.97 19.4205 30.0141 19.2484 30.051C19.0033 30.1036 18.7574 30.1529 18.51 30.1942C18.329 30.2243 18.1453 30.2363 17.9636 30.2624C17.7342 30.2957 17.5056 30.3362 17.2765 30.3711C17.2324 30.3779 17.1871 30.3739 17.1421 30.3751C16.7968 30.3839 16.451 30.4008 16.1057 30.4C15.6897 30.3992 15.2737 30.3835 14.8578 30.3743C14.648 30.2616 14.4113 30.3486 14.1875 30.2732C13.9577 30.1958 13.7001 30.2038 13.4559 30.1657C13.2332 30.1312 13.011 30.0911 12.7912 30.0422C12.6264 30.0053 12.4659 29.9487 12.3027 29.9042C12.1394 29.8597 11.9709 29.8316 11.8125 29.7742C11.3929 29.623 10.9693 29.4862 10.5554 29.3162C10.1162 29.1353 9.68616 28.9383 9.2686 28.7157C8.82175 28.4774 8.38815 28.2159 7.96697 27.9319C7.19362 27.4101 6.47481 26.8256 5.82821 26.1538C5.52336 25.8369 5.20648 25.5292 4.92891 25.1891C4.58836 24.7715 4.27067 24.3343 3.96823 23.8882C3.72435 23.528 3.50855 23.1474 3.29756 22.7663C3.0256 22.2753 2.79857 21.7619 2.5928 21.2401C2.5591 21.1546 2.54907 21.06 2.521 20.9396H2.5222Z" fill="white" style="fill:white;fill-opacity:1;"/>
<path d="M29.3089 10.4151C29.2648 10.4219 29.2279 10.4307 29.191 10.4323C28.9455 10.442 28.9531 10.4384 28.8569 10.2141C28.7606 9.98911 28.6515 9.76929 28.5392 9.55149C28.4208 9.32165 28.3017 9.091 28.1653 8.87159C27.9688 8.55591 27.7582 8.24866 27.5488 7.9414C27.406 7.73202 27.2644 7.52023 27.1036 7.32448C26.8412 7.00519 26.5729 6.69031 26.2905 6.38907C26.025 6.10548 25.7498 5.82871 25.459 5.5712C25.1309 5.28039 24.7859 5.00722 24.4381 4.74008C24.1618 4.52829 23.877 4.32532 23.5822 4.14001C23.2885 3.95469 22.9721 3.80588 22.6768 3.62297C22.2877 3.38189 21.8686 3.205 21.4502 3.02851C21.0916 2.87729 20.7218 2.75053 20.3532 2.62498C19.9789 2.49743 19.5987 2.38913 19.2096 2.31292C18.9769 2.26759 18.7503 2.19178 18.5176 2.14926C18.2681 2.10353 18.0154 2.06422 17.7627 2.05179C17.4463 2.03614 17.1354 1.94549 16.8157 1.9856C16.3797 1.88131 15.936 1.93025 15.4984 1.9475C15.2529 1.95712 14.9994 1.95151 14.7592 1.99603C14.4772 2.04858 14.192 2.04577 13.9124 2.09511C13.6778 2.13682 13.4475 2.2014 13.2149 2.25235C13.0432 2.28965 12.8679 2.31292 12.6978 2.35584C12.2911 2.45852 11.8832 2.55639 11.4933 2.71804C11.2727 2.8095 11.0372 2.86405 10.8162 2.9551C10.4957 3.08707 10.1796 3.23027 9.86714 3.38109C9.26185 3.67311 8.67662 4.00563 8.12829 4.39231C7.64575 4.73246 7.18486 5.1055 6.732 5.48496C6.43036 5.73766 6.15279 6.02085 5.87802 6.30324C5.67907 6.50821 5.49856 6.73163 5.31646 6.95224C5.08501 7.23222 4.85036 7.5102 4.63576 7.80261C4.45285 8.05171 4.2928 8.31805 4.12794 8.57998C4.00681 8.77212 3.88406 8.96465 3.77857 9.16561C3.58242 9.53945 3.3959 9.91851 3.21219 10.2988C3.18251 10.3601 3.16285 10.4227 3.08945 10.4263C3.0008 10.4311 2.90373 10.4416 2.82511 10.4111C2.75251 10.383 2.75933 10.2859 2.78861 10.2222C2.91176 9.95341 3.0341 9.68386 3.17208 9.42273C3.4304 8.93497 3.69915 8.45242 4.01162 7.99756C4.25149 7.64818 4.51021 7.31165 4.76692 6.97431C5.15681 6.46208 5.60005 5.99638 6.07176 5.56117C6.48772 5.1773 6.92013 4.80907 7.36537 4.4593C7.91048 4.0309 8.49291 3.65345 9.10822 3.33175C9.47605 3.13922 9.84548 2.94788 10.2245 2.77861C10.6433 2.59169 11.0697 2.42162 11.5097 2.28805C11.6718 2.23871 11.8278 2.16972 11.9903 2.12118C12.1471 2.07465 12.3091 2.04497 12.4676 2.00446C12.6734 1.95191 12.8779 1.89495 13.0833 1.8424C13.1198 1.83318 13.1599 1.83839 13.1972 1.83157C13.4628 1.78384 13.7283 1.7349 13.9938 1.68637C14.0127 1.68276 14.0315 1.68035 14.0504 1.67875C14.3031 1.65949 14.5554 1.62901 14.8085 1.6242C15.5454 1.61016 16.2822 1.60414 17.0195 1.60013C17.2176 1.59893 17.417 1.60454 17.6139 1.6262C17.8061 1.64746 17.995 1.6972 18.1863 1.72768C18.4294 1.76619 18.6741 1.79587 18.9176 1.83318C19.0287 1.85043 19.1394 1.87329 19.2489 1.89976C19.5176 1.96555 19.7864 2.03213 20.0535 2.10393C20.1743 2.13642 20.2926 2.17934 20.4101 2.22226C20.788 2.36025 21.1702 2.4878 21.5409 2.64304C21.9773 2.82595 22.4145 3.01246 22.8305 3.23589C23.378 3.52991 23.9059 3.85922 24.4137 4.22063C25.0378 4.66507 25.6194 5.15885 26.1702 5.68912C26.3976 5.90773 26.6106 6.14158 26.822 6.37664C27.1517 6.74286 27.4586 7.12553 27.7482 7.52183C27.9836 7.84353 28.1898 8.18648 28.41 8.51941C28.7096 8.97187 28.9367 9.46364 29.1761 9.94819C29.2319 10.0613 29.2756 10.1804 29.3177 10.2996C29.329 10.3313 29.3133 10.373 29.3093 10.4159L29.3089 10.4151Z" fill="white" style="fill:white;fill-opacity:1;"/>
<path d="M12.8221 26.1402C12.7431 26.0897 12.6861 26.0532 12.632 26.0183C12.9192 25.1326 13.2027 24.259 13.4936 23.3629C13.5802 23.3853 13.6544 23.4046 13.7242 23.4226C13.7563 23.6268 13.648 23.7736 13.5995 23.9336C13.4563 24.4062 13.3038 24.8755 13.1538 25.346C13.0816 25.5722 13.0102 25.7988 12.9308 26.0227C12.9159 26.0648 12.8662 26.0941 12.8221 26.1402Z" fill="white" style="fill:white;fill-opacity:1;"/>
<path d="M19.4214 26.0395C19.3877 26.0599 19.3556 26.0792 19.3239 26.0984C19.2437 26.1474 19.1952 26.1249 19.1667 26.0359C19.1021 25.8333 19.0331 25.6323 18.9669 25.4302C18.8257 25.0006 18.6861 24.5702 18.5437 24.141C18.4776 23.9408 18.4066 23.7423 18.338 23.5429C18.3115 23.4655 18.3444 23.4234 18.4587 23.3877C18.5494 23.3596 18.6059 23.3901 18.6332 23.4779C18.7355 23.8072 18.835 24.1378 18.9421 24.4655C19.0989 24.9468 19.2625 25.4258 19.4202 25.9067C19.433 25.9464 19.4218 25.9941 19.4218 26.0395H19.4214Z" fill="white" style="fill:white;fill-opacity:1;"/>
<path d="M12.5896 23.0069C12.5551 23.0988 12.5262 23.2031 12.4781 23.2973C12.2174 23.8084 11.9506 24.3166 11.6879 24.8268C11.5816 25.0334 11.4809 25.2428 11.3754 25.4553C11.3016 25.4902 11.2154 25.4886 11.1769 25.4132C11.15 25.3607 11.1548 25.2728 11.1801 25.2159C11.2752 25.0029 11.3823 24.7951 11.4881 24.5869C11.6787 24.2119 11.8716 23.8376 12.0633 23.463C12.1468 23.3001 12.2294 23.1365 12.3144 22.9744C12.3686 22.8709 12.4356 22.8762 12.5896 23.0065V23.0069Z" fill="white" style="fill:white;fill-opacity:1;"/>
<path d="M20.7699 22.2621C21.0102 22.5838 21.2468 22.8959 21.4779 23.2116C21.7606 23.5979 22.0394 23.9869 22.319 24.3752C22.3792 24.4591 22.3679 24.5252 22.2885 24.5818C22.1935 24.6492 22.1698 24.6464 22.092 24.5405C21.8365 24.1919 21.5842 23.8413 21.3286 23.4932C21.0852 23.161 20.8393 22.8305 20.5938 22.4992C20.5148 22.3925 20.5541 22.2862 20.6865 22.2597C20.7165 22.2537 20.7494 22.2617 20.7699 22.2625V22.2621Z" fill="white" style="fill:white;fill-opacity:1;"/>
<path d="M22.3708 7.49907C22.3355 7.56284 22.3159 7.61018 22.2866 7.65069C22.0888 7.92225 21.8883 8.1918 21.6901 8.46255C21.4723 8.76018 21.2565 9.05941 21.0395 9.35744C20.9725 9.4497 20.9059 9.54236 20.8357 9.63221C20.7704 9.71644 20.703 9.72527 20.624 9.66631C20.5393 9.60333 20.5405 9.57325 20.6171 9.46494C20.8185 9.18175 21.0146 8.89455 21.2184 8.61297C21.5028 8.22028 21.792 7.83079 22.0796 7.4401C22.1261 7.37673 22.1915 7.34423 22.2625 7.38114C22.307 7.4044 22.3355 7.45815 22.3708 7.49786V7.49907Z" fill="white" style="fill:white;fill-opacity:1;"/>
<path d="M19.4991 22.9837C19.5364 22.9596 19.5564 22.9436 19.5785 22.9328C19.6944 22.877 19.7129 22.881 19.7706 22.9933C19.8893 23.2244 20.0045 23.457 20.1228 23.6885C20.3562 24.1437 20.5913 24.5982 20.8252 25.0535C20.8789 25.1582 20.9302 25.2637 20.9856 25.3752C20.9359 25.4068 20.9066 25.4313 20.8729 25.4462C20.765 25.4943 20.7261 25.4815 20.6735 25.38C20.5865 25.2115 20.5023 25.0422 20.4156 24.8734C20.2459 24.5416 20.0751 24.2107 19.9054 23.8794C19.7822 23.6391 19.6583 23.3993 19.54 23.157C19.5139 23.104 19.5111 23.0399 19.4987 22.9845L19.4991 22.9837Z" fill="white" style="fill:white;fill-opacity:1;"/>
<path d="M9.69983 7.51105C9.81094 7.32693 9.90801 7.31811 10.0299 7.48176C10.1896 7.69556 10.3404 7.91577 10.4981 8.13117C10.6701 8.36623 10.8486 8.59687 11.0191 8.83313C11.1703 9.04292 11.3163 9.25671 11.4603 9.47131C11.5273 9.57079 11.5165 9.66024 11.4439 9.70316C11.3657 9.74928 11.3215 9.73204 11.2433 9.62413C10.8972 9.1464 10.5518 8.66827 10.2044 8.19134C10.0376 7.9619 9.86669 7.73527 9.70023 7.51105H9.69983Z" fill="white" style="fill:white;fill-opacity:1;"/>
<path d="M20.9926 6.55523C20.9212 6.70725 20.861 6.84363 20.7944 6.9764C20.5883 7.38755 20.3809 7.79829 20.1711 8.20783C20.0451 8.45412 19.9172 8.6996 19.7836 8.94228C19.7591 8.9864 19.7078 9.03654 19.6625 9.04416C19.5413 9.06422 19.4776 8.96474 19.5313 8.84721C19.5887 8.72166 19.6516 8.59812 19.7146 8.47538C19.9641 7.98722 20.214 7.49986 20.4647 7.0125C20.5253 6.89497 20.5863 6.77785 20.6528 6.66353C20.7499 6.49706 20.7523 6.49827 20.9926 6.55523Z" fill="white" style="fill:white;fill-opacity:1;"/>
<path d="M11.5642 22.376C11.0059 23.1217 10.4772 23.8923 9.90602 24.6379C9.83101 24.601 9.77566 24.5734 9.70667 24.5393C9.71228 24.5024 9.70667 24.4534 9.72672 24.4205C9.7901 24.3178 9.8611 24.2192 9.9333 24.1221C10.1595 23.8168 10.3874 23.5128 10.6148 23.2088C10.7403 23.0407 10.8687 22.8746 10.9926 22.7057C11.0669 22.6047 11.1358 22.5 11.2048 22.3953C11.3196 22.2216 11.3877 22.2136 11.5642 22.376Z" fill="white" style="fill:white;fill-opacity:1;"/>
<path d="M14.6809 23.6922C14.7271 23.6886 14.7708 23.6814 14.8141 23.6818C14.9649 23.6838 14.9798 23.7083 14.9284 23.8502C14.9156 23.8855 14.9068 23.9229 14.9023 23.9602C14.8703 24.2305 14.8574 24.5045 14.8029 24.77C14.7559 24.9978 14.7319 25.2285 14.6849 25.4539C14.6384 25.6773 14.6039 25.8988 14.5875 26.1254C14.5794 26.2369 14.5433 26.3464 14.5165 26.474H14.2975C14.2766 26.3255 14.2734 26.1791 14.3071 26.0263C14.3464 25.8482 14.3564 25.6637 14.3869 25.4836C14.415 25.3171 14.4551 25.1527 14.4868 24.9866C14.5092 24.8687 14.5309 24.75 14.5453 24.6308C14.5646 24.4732 14.571 24.3143 14.5931 24.1571C14.6139 24.0087 14.648 23.8623 14.6809 23.6914V23.6922Z" fill="white" style="fill:white;fill-opacity:1;"/>
<path d="M12.9082 5.87646C12.98 6.12436 13.0341 6.33013 13.0999 6.53269C13.1813 6.78259 13.276 7.02767 13.3582 7.27717C13.4782 7.64098 13.5917 8.0064 13.708 8.37102C13.7473 8.49416 13.7317 8.55032 13.6494 8.57799C13.556 8.60968 13.487 8.57438 13.4493 8.46006C13.3338 8.10869 13.2267 7.7545 13.1099 7.40352C12.9563 6.94063 12.7971 6.47975 12.6394 6.01806C12.619 5.95749 12.6366 5.91016 12.694 5.89692C12.7642 5.88048 12.8384 5.88208 12.9082 5.87646Z" fill="white" style="fill:white;fill-opacity:1;"/>
<path d="M11.1718 6.53387C11.2324 6.52504 11.2938 6.51622 11.36 6.50659C11.6183 7.01762 11.8722 7.52302 12.1293 8.02643C12.2468 8.25627 12.3728 8.4817 12.4927 8.71033C12.5649 8.84832 12.5629 8.84952 12.5356 9.03524H12.3311C12.0908 8.55309 11.8521 8.06734 11.6075 7.5844C11.4851 7.34292 11.3503 7.10787 11.2224 6.8688C11.1678 6.76692 11.1221 6.66263 11.1718 6.53387Z" fill="white" style="fill:white;fill-opacity:1;"/>
<path d="M8.62758 23.579C8.43224 23.453 8.42382 23.3969 8.55899 23.2617C9.08566 22.7358 9.61193 22.21 10.1386 21.6845C10.206 21.6171 10.2734 21.5497 10.3432 21.4848C10.4013 21.431 10.4904 21.4378 10.5457 21.494C10.6107 21.5598 10.5923 21.6159 10.5337 21.6745C10.3275 21.8819 10.1234 22.0916 9.91678 22.299C9.65204 22.565 9.3865 22.8293 9.12016 23.0936C8.95851 23.2541 8.79485 23.4133 8.62678 23.5786L8.62758 23.579Z" fill="white" style="fill:white;fill-opacity:1;"/>
<path d="M19.1829 5.88048C19.2414 5.87567 19.2667 5.87005 19.2916 5.87206C19.4151 5.88129 19.4576 5.93263 19.4219 6.04334C19.2932 6.44325 19.1612 6.84196 19.03 7.24108C18.9089 7.6097 18.7874 7.97793 18.6678 8.34696C18.6466 8.41234 18.6333 8.48053 18.6129 8.56115C18.5872 8.56757 18.5515 8.58362 18.5162 8.58402C18.3947 8.58522 18.3481 8.53869 18.3718 8.42076C18.3991 8.28559 18.4388 8.15201 18.4809 8.02045C18.5663 7.7537 18.6554 7.48856 18.7452 7.22343C18.8515 6.90975 18.9619 6.59768 19.0665 6.28321C19.1099 6.15284 19.1432 6.01927 19.1829 5.88089V5.88048Z" fill="white" style="fill:white;fill-opacity:1;"/>
<path d="M21.6649 10.5599C21.4832 10.4304 21.4711 10.3886 21.5979 10.2527C21.7804 10.0569 21.9733 9.8716 22.1614 9.68147C22.4434 9.39748 22.7242 9.11229 23.0074 8.8295C23.1245 8.71237 23.2457 8.59966 23.3652 8.48574C23.4278 8.42597 23.4924 8.40632 23.569 8.46689C23.6472 8.52826 23.6588 8.56717 23.5922 8.63937C23.4972 8.74246 23.3961 8.83993 23.2966 8.9386C22.9982 9.23503 22.6989 9.53065 22.4005 9.82668C22.157 10.0682 21.9144 10.3104 21.6645 10.5595L21.6649 10.5599Z" fill="white" style="fill:white;fill-opacity:1;"/>
<path d="M17.1465 23.6877H17.4004C17.4397 23.9536 17.4654 24.2216 17.5223 24.4827C17.5572 24.6423 17.5336 24.81 17.6106 24.9656C17.6531 25.0515 17.6467 25.1618 17.6611 25.2613C17.6864 25.4354 17.7093 25.6098 17.7357 25.7835C17.7602 25.9456 17.7899 26.1064 17.8135 26.2685C17.8228 26.3302 17.8216 26.3932 17.8264 26.4775C17.7458 26.4827 17.6792 26.4871 17.6198 26.4907C17.5388 26.4189 17.5219 26.3387 17.5135 26.2448C17.4971 26.0631 17.4602 25.8834 17.4341 25.7029C17.4088 25.5292 17.4028 25.3507 17.3583 25.1822C17.2873 24.9139 17.3013 24.6351 17.2215 24.366C17.1601 24.1586 17.1706 23.93 17.1469 23.6881L17.1465 23.6877Z" fill="white" style="fill:white;fill-opacity:1;"/>
<path d="M23.6515 23.3809C23.6041 23.4382 23.5656 23.4948 23.5171 23.5413C23.4742 23.5822 23.43 23.5726 23.3851 23.5273C23.0815 23.2192 22.7762 22.9127 22.4698 22.6071C22.1994 22.3371 21.927 22.0692 21.6555 21.8001C21.6238 21.7688 21.5901 21.7391 21.5616 21.7046C21.4962 21.626 21.5019 21.5558 21.5749 21.4896C21.6406 21.4298 21.6764 21.437 21.7614 21.5213C22.3258 22.0824 22.8901 22.6436 23.4553 23.204C23.5131 23.2613 23.576 23.3131 23.6511 23.3805L23.6515 23.3809Z" fill="white" style="fill:white;fill-opacity:1;"/>
<path d="M14.9488 8.24184C14.9232 8.24705 14.8923 8.24986 14.8638 8.25949C14.6612 8.32647 14.6701 8.32607 14.652 8.10827C14.638 7.9414 14.5967 7.77654 14.571 7.61048C14.5449 7.44241 14.5265 7.27354 14.4992 7.10587C14.4707 6.93259 14.4338 6.76091 14.4037 6.58803C14.3788 6.44523 14.3556 6.30163 14.3375 6.15763C14.3119 5.95186 14.2918 5.74568 14.2673 5.52106H14.5297C14.5646 5.78419 14.5958 6.04532 14.6348 6.30524C14.66 6.47291 14.6985 6.63817 14.7274 6.80504C14.7575 6.97752 14.7824 7.1508 14.8104 7.32368C14.8377 7.49095 14.8674 7.65821 14.8931 7.82588C14.9127 7.95464 14.928 8.0842 14.9492 8.24184H14.9488Z" fill="white" style="fill:white;fill-opacity:1;"/>
<path d="M10.5836 10.3285C10.6009 10.4549 10.5086 10.4946 10.4079 10.5547C10.367 10.5134 10.3245 10.4697 10.2816 10.4272C9.69834 9.84837 9.11512 9.26956 8.53149 8.69074C8.45528 8.61493 8.44846 8.54995 8.51424 8.48377C8.58725 8.40996 8.63739 8.40876 8.72604 8.4962C8.97914 8.7473 9.22864 9.00201 9.48054 9.25472C9.80424 9.57962 10.1283 9.90453 10.4541 10.2278C10.493 10.2667 10.5411 10.2964 10.584 10.3289L10.5836 10.3285Z" fill="white" style="fill:white;fill-opacity:1;"/>
<path d="M17.393 8.3209C17.298 8.2848 17.235 8.26073 17.1652 8.23426C17.1576 8.11111 17.1676 7.99238 17.1953 7.86443C17.2554 7.58765 17.2707 7.30166 17.3136 7.02088C17.3381 6.86123 17.383 6.70479 17.4139 6.54595C17.4379 6.42241 17.4576 6.29766 17.4732 6.17251C17.4913 6.02811 17.5081 5.8829 17.5162 5.7377C17.5278 5.52029 17.5771 5.48219 17.8158 5.53032C17.819 5.5596 17.8282 5.59169 17.8246 5.62178C17.7965 5.8472 17.7705 6.07344 17.7336 6.29726C17.7083 6.45049 17.6626 6.6005 17.6345 6.75333C17.604 6.91979 17.5836 7.08826 17.5575 7.25553C17.5294 7.43523 17.4993 7.61413 17.4716 7.79383C17.446 7.95989 17.4219 8.12636 17.393 8.3209Z" fill="white" style="fill:white;fill-opacity:1;"/>
<path d="M15.9381 5.36417C16.0175 5.36056 16.0789 5.35775 16.1383 5.35535C16.1812 5.51058 16.1876 7.98227 16.1471 8.18563H15.9385V5.36417H15.9381Z" fill="white" style="fill:white;fill-opacity:1;"/>
<path d="M15.9453 23.802H16.1402C16.1787 23.9452 16.1887 26.3331 16.1518 26.5773H15.9561C15.9188 26.4365 15.908 24.0691 15.9453 23.802Z" fill="white" style="fill:white;fill-opacity:1;"/>
<path d="M9.31353 20.8382V21.0411C9.03074 21.2417 8.74475 21.441 8.46316 21.6456C8.20123 21.8361 7.94251 22.0315 7.68379 22.2264C7.57509 22.3082 7.48002 22.3191 7.4351 22.2473C7.38776 22.1715 7.42146 22.0772 7.51572 22.0074C7.87632 21.7403 8.23452 21.4699 8.59673 21.2052C8.76039 21.0856 8.93487 20.981 9.09733 20.8602C9.16351 20.8113 9.22207 20.8081 9.31273 20.8382H9.31353Z" fill="white" style="fill:white;fill-opacity:1;"/>
<path d="M22.9512 20.8691C23.039 20.9185 23.1253 20.957 23.1999 21.0107C23.6688 21.3497 24.1349 21.6922 24.6022 22.0328C24.7145 22.1146 24.7306 22.1615 24.6656 22.2401C24.6042 22.3139 24.518 22.3151 24.4317 22.2514C24.0182 21.9465 23.6038 21.6433 23.1895 21.3388C23.1229 21.2899 23.0591 21.2361 22.9901 21.1908C22.8172 21.0773 22.8164 21.0789 22.9508 20.8687L22.9512 20.8691Z" fill="white" style="fill:white;fill-opacity:1;"/>
<path d="M8.56468 10.3891C8.59557 10.4757 8.56548 10.5451 8.49368 10.5872C8.42549 10.6273 8.36412 10.5932 8.30356 10.5479C8.07131 10.3734 7.83505 10.2034 7.6008 10.0313C7.55467 9.99759 7.50814 9.96389 7.46602 9.92498C7.40986 9.87324 7.39743 9.76654 7.44396 9.72001C7.50012 9.66345 7.55868 9.65904 7.62928 9.71199C7.88719 9.90613 8.14953 10.0947 8.41065 10.2848C8.46119 10.3217 8.51414 10.3554 8.56468 10.3895V10.3891Z" fill="white" style="fill:white;fill-opacity:1;"/>
<path d="M23.5681 10.5876C23.5501 10.5271 23.5328 10.4673 23.512 10.3975C23.7562 10.2198 23.9957 10.0457 24.2348 9.87083C24.2961 9.82591 24.3531 9.77456 24.4161 9.73204C24.4987 9.67589 24.5914 9.68592 24.6576 9.7513C24.7213 9.81427 24.7177 9.8612 24.6419 9.91656C24.3503 10.1287 24.0567 10.3373 23.7679 10.5535C23.7033 10.6017 23.6463 10.6109 23.5677 10.5876H23.5681Z" fill="white" style="fill:white;fill-opacity:1;"/>
<rect x="13.76" y="18.72" width="5.08895" height="3.2" rx="1.6" fill="white" style="fill:white;fill-opacity:1;"/>
<path d="M14.476 21.1357V19.6316H14.7949V20.8723H15.4049V21.1357H14.476Z" fill="#4D6AD6" style="fill:#4D6AD6;fill:color(display-p3 0.3020 0.4157 0.8392);fill-opacity:1;"/>
<path d="M15.9564 19.9855V21.1357H15.6426V19.9855H15.9564ZM15.8 19.5349C15.8466 19.5349 15.8867 19.5459 15.9203 19.5678C15.954 19.5891 15.9708 19.6292 15.9708 19.6882C15.9708 19.7465 15.954 19.787 15.9203 19.8096C15.8867 19.8315 15.8466 19.8425 15.8 19.8425C15.7527 19.8425 15.7122 19.8315 15.6786 19.8096C15.6457 19.787 15.6292 19.7465 15.6292 19.6882C15.6292 19.6292 15.6457 19.5891 15.6786 19.5678C15.7122 19.5459 15.7527 19.5349 15.8 19.5349Z" fill="#4D6AD6" style="fill:#4D6AD6;fill:color(display-p3 0.3020 0.4157 0.8392);fill-opacity:1;"/>
<path d="M16.7711 20.9063C16.8054 20.9063 16.8387 20.9028 16.8709 20.896C16.9039 20.8891 16.9364 20.8805 16.9687 20.8703V21.1038C16.9351 21.1189 16.8932 21.1312 16.8432 21.1408C16.7938 21.1511 16.7396 21.1563 16.6806 21.1563C16.612 21.1563 16.5503 21.1453 16.4954 21.1233C16.4412 21.1007 16.3984 21.062 16.3668 21.0071C16.336 20.9515 16.3205 20.8744 16.3205 20.7756V20.2211H16.1703V20.0884L16.3432 19.9835L16.4337 19.7407H16.6343V19.9855H16.9563V20.2211H16.6343V20.7756C16.6343 20.8195 16.6467 20.8524 16.6713 20.8744C16.6967 20.8956 16.73 20.9063 16.7711 20.9063Z" fill="#4D6AD6" style="fill:#4D6AD6;fill:color(display-p3 0.3020 0.4157 0.8392);fill-opacity:1;"/>
<path d="M17.6765 19.9639C17.7828 19.9639 17.8743 19.9845 17.9511 20.0256C18.028 20.0661 18.0873 20.1251 18.1291 20.2026C18.171 20.2801 18.1919 20.3747 18.1919 20.4865V20.6388H17.4501C17.4536 20.7273 17.48 20.7969 17.5293 20.8476C17.5794 20.8977 17.6487 20.9227 17.7372 20.9227C17.8105 20.9227 17.8778 20.9152 17.9388 20.9001C17.9998 20.885 18.0626 20.8624 18.1271 20.8322V21.075C18.0701 21.1031 18.0105 21.1237 17.9481 21.1367C17.8863 21.1497 17.8112 21.1563 17.7228 21.1563C17.6075 21.1563 17.5053 21.135 17.4162 21.0925C17.3277 21.0499 17.2581 20.9851 17.2073 20.898C17.1573 20.8109 17.1322 20.7012 17.1322 20.5688C17.1322 20.4344 17.1549 20.3226 17.2001 20.2334C17.2461 20.1436 17.3099 20.0764 17.3915 20.0318C17.4731 19.9865 17.5681 19.9639 17.6765 19.9639ZM17.6785 20.1872C17.6175 20.1872 17.5667 20.2067 17.5263 20.2458C17.4865 20.2849 17.4635 20.3463 17.4573 20.4299H17.8976C17.897 20.3833 17.8884 20.3418 17.8719 20.3055C17.8562 20.2691 17.8321 20.2403 17.7999 20.219C17.7684 20.1978 17.7279 20.1872 17.6785 20.1872Z" fill="#4D6AD6" style="fill:#4D6AD6;fill:color(display-p3 0.3020 0.4157 0.8392);fill-opacity:1;"/>
<path d="M5.61212 13.4459C5.42254 13.4459 5.25427 13.4832 5.10729 13.5578C4.96244 13.6302 4.83996 13.7356 4.73985 13.8741C4.64187 14.0126 4.56731 14.1798 4.51619 14.3757C4.46507 14.5717 4.43951 14.7922 4.43951 15.0371C4.43951 15.3673 4.47998 15.6495 4.56092 15.8838C4.644 16.116 4.7718 16.2939 4.94434 16.4174C5.11688 16.5388 5.33947 16.5995 5.61212 16.5995C5.8017 16.5995 5.99128 16.5782 6.18085 16.5356C6.37256 16.493 6.58025 16.4323 6.80391 16.3535V17.1843C6.59729 17.2695 6.39386 17.3302 6.19363 17.3664C5.99341 17.4047 5.76868 17.4239 5.51946 17.4239C5.03806 17.4239 4.64187 17.3248 4.33087 17.1267C4.02201 16.9265 3.79303 16.6475 3.64392 16.2896C3.49481 15.9296 3.42026 15.51 3.42026 15.0307C3.42026 14.6771 3.46819 14.3534 3.56404 14.0594C3.65989 13.7655 3.80048 13.5109 3.9858 13.2958C4.17112 13.0806 4.4001 12.9145 4.67275 12.7973C4.9454 12.6802 5.25853 12.6216 5.61212 12.6216C5.8443 12.6216 6.07648 12.6514 6.30866 12.7111C6.54297 12.7686 6.76663 12.8485 6.97964 12.9507L6.66012 13.7559C6.48546 13.6728 6.30972 13.6004 6.13293 13.5386C5.95613 13.4768 5.78253 13.4459 5.61212 13.4459ZM10.5582 16.0628C10.5582 16.3397 10.4911 16.5804 10.3569 16.7849C10.2227 16.9893 10.0267 17.147 9.76899 17.2577C9.51338 17.3685 9.20238 17.4239 8.83601 17.4239C8.67412 17.4239 8.51543 17.4132 8.35993 17.3919C8.20657 17.3706 8.05853 17.3397 7.91581 17.2993C7.77523 17.2567 7.64103 17.2045 7.51322 17.1427V16.2225C7.73475 16.3205 7.9648 16.4089 8.20337 16.4877C8.44194 16.5665 8.67838 16.6059 8.91269 16.6059C9.07458 16.6059 9.20451 16.5846 9.3025 16.542C9.40261 16.4994 9.47504 16.4409 9.51977 16.3663C9.5645 16.2917 9.58687 16.2065 9.58687 16.1107C9.58687 15.9935 9.54746 15.8934 9.46865 15.8103C9.38983 15.7273 9.2812 15.6495 9.14274 15.5771C9.00642 15.5047 8.85199 15.4269 8.67945 15.3439C8.57081 15.2927 8.45259 15.231 8.32479 15.1585C8.19698 15.084 8.07557 14.9935 7.96054 14.887C7.84552 14.7804 7.75073 14.6516 7.67618 14.5003C7.60375 14.347 7.56754 14.1638 7.56754 13.9508C7.56754 13.6717 7.63144 13.4332 7.75925 13.2351C7.88706 13.037 8.06918 12.8857 8.30562 12.7814C8.54419 12.6749 8.82536 12.6216 9.14913 12.6216C9.39196 12.6216 9.62308 12.6504 9.84248 12.7079C10.064 12.7633 10.2951 12.8442 10.5358 12.9507L10.2163 13.7207C10.0012 13.6334 9.80839 13.5663 9.63799 13.5194C9.46758 13.4704 9.29398 13.4459 9.11718 13.4459C8.99364 13.4459 8.8882 13.4662 8.80086 13.5067C8.71353 13.545 8.6475 13.6004 8.60276 13.6728C8.55803 13.7431 8.53567 13.8251 8.53567 13.9188C8.53567 14.0296 8.56762 14.1233 8.63152 14.2C8.69755 14.2746 8.79554 14.347 8.92547 14.4173C9.05754 14.4876 9.22156 14.5696 9.41752 14.6633C9.65609 14.7762 9.85952 14.8944 10.0278 15.018C10.1982 15.1394 10.3292 15.2831 10.4208 15.4493C10.5124 15.6133 10.5582 15.8178 10.5582 16.0628ZM13.1782 14.7368H15.0314V17.1587C14.7864 17.2396 14.5319 17.3046 14.2677 17.3536C14.0036 17.4005 13.7043 17.4239 13.3699 17.4239C12.9055 17.4239 12.5115 17.3323 12.1877 17.1491C11.8639 16.9659 11.6179 16.6954 11.4496 16.3375C11.2814 15.9797 11.1972 15.5398 11.1972 15.018C11.1972 14.528 11.2909 14.1041 11.4784 13.7463C11.668 13.3884 11.9438 13.1115 12.3059 12.9156C12.6702 12.7196 13.1143 12.6216 13.6383 12.6216C13.8854 12.6216 14.1293 12.6482 14.37 12.7015C14.6107 12.7547 14.829 12.824 15.025 12.9092L14.6959 13.7016C14.5532 13.6291 14.3902 13.5684 14.207 13.5194C14.0238 13.4704 13.8321 13.4459 13.6319 13.4459C13.3443 13.4459 13.0941 13.512 12.881 13.644C12.6702 13.7761 12.5062 13.9614 12.389 14.2C12.274 14.4364 12.2165 14.7155 12.2165 15.0371C12.2165 15.3417 12.258 15.6122 12.3411 15.8487C12.4241 16.083 12.5551 16.2673 12.7341 16.4014C12.913 16.5335 13.1462 16.5995 13.4338 16.5995C13.5744 16.5995 13.6926 16.5932 13.7885 16.5804C13.8864 16.5655 13.978 16.5506 14.0632 16.5356V15.5611H13.1782V14.7368ZM19.9742 17.36H18.9869V15.3439H17.137V17.36H16.1465V12.6887H17.137V14.5195H18.9869V12.6887H19.9742V17.36ZM24.358 13.7878V17.36H23.6103L23.4793 16.9031H23.4282C23.3515 17.0245 23.2556 17.1235 23.1406 17.2002C23.0256 17.2769 22.8989 17.3334 22.7604 17.3696C22.6219 17.4058 22.4782 17.4239 22.3291 17.4239C22.0734 17.4239 21.8508 17.3792 21.6613 17.2897C21.4717 17.1981 21.3237 17.0564 21.2171 16.8647C21.1128 16.673 21.0606 16.4238 21.0606 16.1171V13.7878H22.0351V15.8742C22.0351 16.1299 22.0809 16.3226 22.1725 16.4526C22.2641 16.5825 22.41 16.6475 22.6102 16.6475C22.8083 16.6475 22.9638 16.6027 23.0767 16.5133C23.1896 16.4217 23.2684 16.2886 23.3132 16.1139C23.36 15.9371 23.3834 15.7219 23.3834 15.4685V13.7878H24.358ZM26.3549 12.3884V13.545C26.3549 13.6792 26.3507 13.8123 26.3421 13.9444C26.3358 14.0765 26.3272 14.1787 26.3166 14.2511H26.3549C26.4486 14.1041 26.5765 13.9795 26.7383 13.8773C26.9002 13.7729 27.11 13.7207 27.3678 13.7207C27.7682 13.7207 28.0931 13.8773 28.3423 14.1904C28.5915 14.5035 28.7161 14.9626 28.7161 15.5675C28.7161 15.9744 28.6586 16.3162 28.5436 16.5932C28.4286 16.8679 28.2677 17.0756 28.0611 17.2162C27.8545 17.3547 27.6149 17.4239 27.3422 17.4239C27.0802 17.4239 26.8736 17.377 26.7224 17.2833C26.5711 17.1896 26.4486 17.0841 26.3549 16.967H26.2878L26.1249 17.36H25.3804V12.3884H26.3549ZM27.0547 14.5003C26.8842 14.5003 26.749 14.5355 26.6489 14.6058C26.5488 14.6761 26.4753 14.7815 26.4284 14.9221C26.3837 15.0627 26.3592 15.2405 26.3549 15.4557V15.5611C26.3549 15.9083 26.406 16.1746 26.5083 16.3599C26.6105 16.5431 26.7969 16.6347 27.0674 16.6347C27.2677 16.6347 27.4264 16.542 27.5435 16.3567C27.6628 16.1714 27.7224 15.9041 27.7224 15.5547C27.7224 15.2054 27.6628 14.9423 27.5435 14.7655C27.4242 14.5887 27.2613 14.5003 27.0547 14.5003Z" fill="white" style="fill:white;fill-opacity:1;"/>
</g>
<defs>
<clipPath id="clip0_40_2859">
<rect width="32" height="32" rx="8" fill="white" style="fill:white;fill-opacity:1;"/>
</clipPath>
</defs>
</svg>
