<svg width="200" height="200" viewBox="0 0 200 200" fill="none" xmlns="http://www.w3.org/2000/svg">
<g clip-path="url(#clip0_41_2185)">
<rect width="200" height="200" rx="50" fill="#4D6AD6" style="fill:#4D6AD6;fill:color(display-p3 0.3020 0.4157 0.8392);fill-opacity:1;"/>
<path d="M27.1354 130.82C28.2009 130.82 29.1911 130.775 30.1713 130.848C30.4521 130.87 30.8081 131.181 30.956 131.454C31.6329 132.703 32.212 134.004 32.8914 135.252C33.626 136.604 34.4332 137.915 35.2079 139.244C35.6642 140.026 36.0778 140.838 36.5842 141.588C37.597 143.087 38.5873 144.609 39.7205 146.015C41.6157 148.366 43.4784 150.771 45.6069 152.899C48.0462 155.338 50.7136 157.562 53.371 159.773C57.2869 163.035 61.6315 165.665 66.1892 167.923C68.6586 169.149 71.1781 170.295 73.7553 171.268C75.9464 172.095 78.2503 172.634 80.5091 173.283C81.9807 173.705 83.4498 174.136 84.939 174.484C85.8941 174.707 86.8844 174.77 87.8546 174.936C88.8599 175.106 89.8602 175.312 90.8605 175.505C91.0159 175.535 91.1663 175.61 91.3218 175.62C92.6705 175.718 94.0193 175.863 95.3705 175.881C98.2962 175.921 101.224 175.923 104.15 175.881C105.822 175.858 107.497 175.78 109.159 175.61C110.325 175.49 111.468 175.151 112.626 174.941C113.867 174.715 115.128 174.587 116.357 174.314C119.42 173.632 122.418 172.739 125.392 171.704C127.966 170.807 130.506 169.846 132.95 168.663C135.259 167.542 137.513 166.291 139.729 164.998C141.471 163.98 143.154 162.847 144.808 161.689C146.042 160.826 147.238 159.891 148.371 158.901C150.459 157.073 152.56 155.251 154.525 153.298C156.955 150.888 159.141 148.264 161.214 145.526C162.776 143.468 164.137 141.294 165.541 139.143C166.308 137.965 166.925 136.686 167.587 135.443C168.381 133.946 169.154 132.437 169.981 130.848C171.147 130.81 172.363 130.69 173.751 130.958C173.443 131.66 173.217 132.237 172.942 132.786C172.132 134.413 171.345 136.052 170.467 137.644C169.472 139.447 168.449 141.242 167.331 142.966C166.236 144.656 165.04 146.288 163.819 147.893C162.573 149.53 161.314 151.167 159.933 152.689C158.331 154.451 156.631 156.133 154.896 157.768C153.104 159.457 151.266 161.107 149.353 162.659C147.849 163.88 146.192 164.913 144.618 166.048C141.717 168.139 138.556 169.799 135.392 171.423C133.091 172.604 130.631 173.494 128.205 174.409C125.933 175.266 123.622 176.021 121.305 176.748C120.225 177.087 119.087 177.247 117.976 177.495C116.527 177.821 115.09 178.205 113.631 178.47C112.621 178.656 111.566 178.608 110.558 178.806C108.454 179.222 106.283 178.964 104.193 179.483C103.927 179.548 103.634 179.503 103.353 179.503C101.427 179.503 99.502 179.548 97.5792 179.491C95.8343 179.438 94.0719 179.405 92.3571 179.12C90.6724 178.839 88.9877 178.681 87.2955 178.508C86.022 178.378 84.776 177.966 83.5175 177.683C83.0161 177.57 82.5047 177.49 82.0083 177.36C80.3437 176.919 78.6615 176.532 77.0294 175.993C74.7606 175.244 72.5219 174.402 70.2881 173.554C68.6335 172.925 66.9739 172.286 65.3744 171.531C63.8753 170.822 62.4438 169.974 61.0023 169.149C58.1418 167.512 55.349 165.765 52.7367 163.744C51.2275 162.579 49.7133 161.418 48.2191 160.232C47.6927 159.813 47.2138 159.335 46.73 158.866C45.3562 157.54 43.9171 156.274 42.6386 154.862C40.2143 152.185 37.7149 149.565 35.7243 146.521C34.4483 144.571 33.0243 142.716 31.826 140.723C30.5875 138.662 29.5195 136.493 28.419 134.352C27.9552 133.447 27.5866 132.492 27.1956 131.552C27.1254 131.387 27.1579 131.179 27.1304 130.818L27.1354 130.82Z" fill="white" style="fill:white;fill-opacity:1;"/>
<path d="M28.8186 65.2047C28.8788 63.8885 29.5632 63.0763 30.037 62.1913C31.5838 59.2932 33.271 56.4704 35.2114 53.828C37.939 50.1152 40.8221 46.5176 44.2015 43.3563C45.9162 41.7518 47.5583 40.0571 49.3809 38.583C52.2489 36.2641 55.2172 34.0629 58.3735 32.1325C61.3442 30.315 64.3852 28.6178 67.5791 27.2464C70.4296 26.023 73.3828 25.0378 76.2984 23.9698C77.4366 23.5511 78.5848 23.14 79.753 22.8191C80.816 22.5283 81.9116 22.3603 82.9946 22.1472C84.5715 21.8364 86.1459 21.4979 87.7328 21.2422C88.9863 21.0416 90.2774 21.0492 91.5158 20.7934C93.5715 20.3698 95.6574 20.6405 97.698 20.3848C98.8813 20.2369 100.082 19.9411 101.228 20.1441C103.289 20.5077 105.357 20.3271 107.41 20.5076C109.408 20.6831 111.379 21.1996 113.379 21.36C115.874 21.5606 118.215 22.4255 120.667 22.8015C122.164 23.0322 123.625 23.5887 125.057 24.1252C127.85 25.1757 130.64 26.2411 133.377 27.4319C138.452 29.6381 143.17 32.4835 147.615 35.7602C150.232 37.688 152.704 39.8014 155.068 42.0452C158.139 44.9633 160.952 48.0945 163.577 51.4188C165.499 53.8531 167.174 56.4403 168.786 59.0726C169.776 60.6896 170.649 62.3793 171.541 64.0565C171.689 64.3348 171.664 64.7058 171.744 65.1872C170.586 65.1872 169.593 65.2197 168.603 65.1721C168.147 65.1495 167.874 64.8287 167.653 64.3824C166.249 61.5445 164.615 58.842 162.722 56.2974C161.561 54.7355 160.521 53.0734 159.255 51.6043C157.434 49.4909 155.497 47.4753 153.539 45.4848C152.197 44.121 150.778 42.8248 149.317 41.5914C147.712 40.2376 146.045 38.9515 144.348 37.7156C143.039 36.7629 141.688 35.8554 140.277 35.0657C137.587 33.554 134.874 32.0824 132.116 30.7011C128.84 29.0615 125.375 27.8606 121.87 26.8177C119.877 26.2261 117.822 25.845 115.788 25.3888C114.224 25.0378 112.662 24.6442 111.078 24.4035C109.742 24.2004 108.363 24.2807 107.027 24.0751C103.737 23.5687 100.433 23.6765 97.134 23.7467C95.166 23.7893 93.2055 24.1077 91.2426 24.3057C90.0593 24.4261 88.876 24.5389 87.6977 24.6943C87.0408 24.7796 86.389 24.925 85.7422 25.0804C83.4559 25.6344 81.1494 26.1283 78.8931 26.7877C76.8274 27.3893 74.8017 28.1464 72.7786 28.8885C69.1761 30.2072 65.749 31.9094 62.4273 33.8197C58.3985 36.1362 54.5704 38.7435 51.0731 41.812C49.223 43.4365 47.3477 45.0485 45.6455 46.8235C43.0859 49.4934 40.7117 52.3288 38.5332 55.3322C36.4072 58.2654 34.527 61.3414 32.8072 64.5203C32.559 64.9791 32.2557 65.2473 31.6791 65.2172C30.769 65.1696 29.854 65.2047 28.8211 65.2047H28.8186Z" fill="white" style="fill:white;fill-opacity:1;"/>
<path d="M15.7639 130.873H18.1079C18.6419 132.086 19.1333 133.237 19.6522 134.377C20.5347 136.313 21.3469 138.288 22.3522 140.159C23.6784 142.62 25.125 145.022 26.594 147.406C28.4066 150.347 30.5325 153.067 32.7236 155.737C35.5014 159.124 38.5148 162.258 41.8014 165.166C44.2207 167.307 46.6976 169.37 49.3274 171.23C52.5213 173.491 55.7653 175.693 59.3378 177.355C61.9451 178.568 64.5022 179.897 67.1345 181.052C69.8696 182.256 72.6925 183.259 75.5856 184.011C77.7065 184.562 79.7823 185.259 81.9759 185.59C83.8235 185.868 85.6611 186.307 87.5138 186.638C89.6798 187.024 91.881 186.956 94.027 187.262C97.6596 187.781 101.28 187.428 104.902 187.528C105.755 187.551 106.612 187.3 107.469 187.207C108.337 187.114 109.209 187.062 110.079 186.994C110.317 186.976 110.561 186.989 110.796 186.951C112.157 186.736 113.516 186.515 114.873 186.287C115.567 186.169 116.256 186.009 116.953 185.906C120.187 185.435 123.329 184.572 126.432 183.585C130.591 182.261 134.693 180.784 138.569 178.746C140.527 177.716 142.535 176.768 144.445 175.657C146.403 174.522 148.283 173.253 150.173 172.005C153.841 169.586 157.168 166.733 160.387 163.759C161.871 162.388 163.197 160.844 164.596 159.38C164.872 159.091 165.17 158.826 165.443 158.535C168.657 155.1 171.49 151.367 174.032 147.414C175.87 144.556 177.58 141.625 178.996 138.529C179.733 136.922 180.52 135.335 181.265 133.733C181.546 133.129 181.847 132.517 182.015 131.875C182.258 130.953 182.839 130.705 183.694 130.805C184.008 130.843 184.326 130.858 184.805 130.895C184.725 131.447 184.76 131.986 184.567 132.424C183.376 135.109 182.153 137.777 180.907 140.437C179.701 143.011 178.199 145.421 176.73 147.852C175.025 150.67 173.077 153.313 171.062 155.892C168.191 159.568 164.995 162.977 161.505 166.081C158.958 168.345 156.371 170.583 153.638 172.611C151.099 174.497 148.411 176.216 145.661 177.783C142.545 179.558 139.348 181.23 136.067 182.669C133.306 183.88 130.489 185.019 127.545 185.781C126.182 186.134 124.853 186.62 123.499 187.009C122.444 187.312 121.378 187.588 120.303 187.819C118.771 188.147 117.234 188.456 115.687 188.714C114.557 188.902 113.408 188.977 112.273 189.14C110.839 189.348 109.41 189.601 107.978 189.819C107.703 189.862 107.419 189.837 107.138 189.844C104.98 189.9 102.819 190.005 100.66 190C98.0607 189.995 95.461 189.897 92.8612 189.839C91.5501 189.135 90.0709 189.679 88.672 189.208C87.2355 188.724 85.626 188.774 84.0993 188.536C82.7079 188.32 81.319 188.07 79.9452 187.764C78.9148 187.533 77.9121 187.18 76.8917 186.901C75.8714 186.623 74.8184 186.448 73.8282 186.089C71.2059 185.144 68.5585 184.289 65.9713 183.226C63.2261 182.095 60.5386 180.864 57.9289 179.473C55.1361 177.984 52.426 176.349 49.7937 174.574C44.9602 171.313 40.4677 167.66 36.4264 163.461C34.5211 161.48 32.5406 159.558 30.8058 157.432C28.6774 154.822 26.6918 152.089 24.8016 149.301C23.2773 147.05 21.9285 144.671 20.6099 142.289C18.9101 139.221 17.4912 136.012 16.2051 132.75C15.9945 132.216 15.9318 131.625 15.7563 130.873H15.7639Z" fill="white" style="fill:white;fill-opacity:1;"/>
<path d="M183.181 65.0945C182.905 65.1371 182.674 65.1923 182.444 65.2023C180.91 65.2625 180.957 65.2399 180.356 63.8385C179.754 62.4321 179.072 61.0582 178.37 59.6969C177.63 58.2604 176.886 56.8189 176.033 55.4476C174.805 53.4746 173.489 51.5543 172.18 49.6339C171.288 48.3253 170.403 47.0016 169.397 45.7782C167.758 43.7826 166.081 41.8146 164.316 39.9319C162.656 38.1594 160.936 36.4296 159.119 34.8201C157.068 33.0026 154.912 31.2953 152.739 29.6256C151.011 28.302 149.231 27.0334 147.389 25.8752C145.554 24.717 143.576 23.7869 141.73 22.6437C139.299 21.137 136.679 20.0314 134.064 18.9283C131.823 17.9832 129.511 17.191 127.207 16.4063C124.868 15.6091 122.492 14.9322 120.06 14.4559C118.606 14.1726 117.189 13.6988 115.735 13.433C114.176 13.1472 112.597 12.9015 111.017 12.8238C109.039 12.7261 107.096 12.1595 105.098 12.4102C102.373 11.7584 99.6005 12.0642 96.8654 12.172C95.3311 12.2322 93.7467 12.1971 92.245 12.4754C90.4826 12.8038 88.7001 12.7862 86.9527 13.0946C85.4862 13.3553 84.0471 13.7589 82.5931 14.0773C81.5201 14.3105 80.4245 14.4559 79.3616 14.7241C76.8195 15.3659 74.2699 15.9776 71.8331 16.9879C70.4543 17.5595 68.9827 17.9005 67.6013 18.4696C65.5982 19.2944 63.6227 20.1894 61.6698 21.132C57.8867 22.9571 54.2291 25.0354 50.802 27.4521C47.7861 29.578 44.9056 31.9095 42.0752 34.2811C40.1899 35.8605 38.4551 37.6305 36.7378 39.3954C35.4944 40.6764 34.3662 42.0728 33.228 43.4517C31.7815 45.2016 30.3149 46.9389 28.9737 48.7665C27.8305 50.3233 26.8302 51.988 25.7998 53.625C25.0427 54.8259 24.2756 56.0292 23.6162 57.2852C22.3903 59.6217 21.2246 61.9908 20.0764 64.3675C19.8909 64.751 19.768 65.1421 19.3092 65.1647C18.7552 65.1948 18.1485 65.2599 17.6571 65.0694C17.2034 64.8939 17.246 64.2872 17.429 63.8886C18.1987 62.209 18.9633 60.5243 19.8257 58.8922C21.4402 55.8437 23.1199 52.8278 25.0728 49.9849C26.572 47.8013 28.189 45.6979 29.7935 43.5896C32.2303 40.3881 35.0005 37.4775 37.9487 34.7575C40.5484 32.3583 43.251 30.0569 46.0337 27.8708C49.4407 25.1933 53.0809 22.8342 56.9266 20.8236C59.2255 19.6203 61.5344 18.4244 63.9035 17.3665C66.5208 16.1982 69.1857 15.1353 71.9359 14.3004C72.9487 13.9921 73.9239 13.5609 74.9393 13.2575C75.9195 12.9667 76.9323 12.7812 77.9226 12.528C79.2087 12.1996 80.4872 11.8436 81.7708 11.5152C81.9989 11.4575 82.2496 11.4901 82.4828 11.4475C84.1424 11.1492 85.802 10.8433 87.4617 10.54C87.5795 10.5174 87.6973 10.5024 87.8151 10.4923C89.3945 10.372 90.9714 10.1815 92.5533 10.1514C97.1587 10.0636 101.764 10.026 106.372 10.001C107.61 9.99344 108.856 10.0285 110.087 10.1639C111.288 10.2968 112.469 10.6076 113.665 10.7982C115.184 11.0389 116.713 11.2244 118.235 11.4575C118.929 11.5653 119.621 11.7082 120.306 11.8737C121.985 12.2848 123.665 12.701 125.335 13.1497C126.089 13.3528 126.829 13.621 127.563 13.8893C129.925 14.7517 132.314 15.5489 134.631 16.5191C137.358 17.6623 140.091 18.8281 142.691 20.2244C146.113 22.0621 149.412 24.1203 152.586 26.3791C156.487 29.1568 160.122 32.2429 163.564 35.5572C164.985 36.9235 166.316 38.3851 167.638 39.8542C169.698 42.143 171.616 44.5347 173.426 47.0116C174.898 49.0222 176.186 51.1657 177.563 53.2465C179.435 56.0743 180.854 59.1479 182.351 62.1764C182.7 62.8833 182.973 63.6279 183.236 64.3725C183.306 64.5705 183.208 64.8313 183.183 65.0995L183.181 65.0945Z" fill="white" style="fill:white;fill-opacity:1;"/>
<path d="M80.1383 163.376C79.6444 163.061 79.2884 162.832 78.95 162.614C80.745 157.079 82.5174 151.619 84.335 146.018C84.8765 146.158 85.3403 146.279 85.7765 146.392C85.977 147.668 85.3001 148.585 84.9968 149.586C84.1018 152.539 83.1492 155.472 82.2115 158.413C81.7603 159.827 81.314 161.243 80.8177 162.642C80.7249 162.905 80.414 163.088 80.1383 163.376Z" fill="white" style="fill:white;fill-opacity:1;"/>
<path d="M121.384 162.747C121.173 162.875 120.973 162.995 120.775 163.115C120.273 163.421 119.97 163.281 119.792 162.724C119.388 161.458 118.957 160.202 118.543 158.939C117.661 156.254 116.789 153.564 115.899 150.881C115.485 149.63 115.041 148.389 114.612 147.143C114.447 146.659 114.653 146.396 115.367 146.173C115.934 145.998 116.287 146.188 116.458 146.737C117.097 148.795 117.719 150.861 118.388 152.909C119.368 155.918 120.391 158.911 121.376 161.917C121.457 162.165 121.386 162.463 121.386 162.747H121.384Z" fill="white" style="fill:white;fill-opacity:1;"/>
<path d="M78.6852 143.794C78.4696 144.368 78.2891 145.019 77.9882 145.609C76.3587 148.802 74.6916 151.979 73.0495 155.168C72.3851 156.459 71.7559 157.767 71.0965 159.096C70.6353 159.314 70.0963 159.304 69.8556 158.833C69.6876 158.505 69.7177 157.955 69.8756 157.6C70.4698 156.268 71.1392 154.97 71.801 153.669C72.9918 151.325 74.1977 148.985 75.396 146.644C75.9175 145.626 76.4339 144.603 76.9654 143.59C77.3038 142.944 77.7225 142.976 78.6852 143.791V143.794Z" fill="white" style="fill:white;fill-opacity:1;"/>
<path d="M129.812 139.138C131.314 141.149 132.793 143.099 134.237 145.072C136.004 147.487 137.747 149.918 139.494 152.345C139.87 152.869 139.8 153.283 139.303 153.636C138.709 154.057 138.561 154.04 138.075 153.378C136.478 151.199 134.901 149.008 133.304 146.832C131.782 144.756 130.246 142.691 128.711 140.62C128.217 139.953 128.463 139.289 129.29 139.123C129.478 139.086 129.684 139.136 129.812 139.141V139.138Z" fill="white" style="fill:white;fill-opacity:1;"/>
<path d="M139.818 46.8693C139.597 47.2679 139.474 47.5638 139.291 47.817C138.055 49.5142 136.802 51.1989 135.563 52.8911C134.202 54.7513 132.853 56.6215 131.497 58.4842C131.078 59.0608 130.662 59.6399 130.224 60.2015C129.815 60.7279 129.394 60.7831 128.9 60.4146C128.371 60.021 128.378 59.8329 128.857 59.1561C130.116 57.3861 131.342 55.5911 132.615 53.8312C134.393 51.3769 136.2 48.9426 137.998 46.5008C138.289 46.1047 138.697 45.9016 139.141 46.1323C139.419 46.2777 139.597 46.6136 139.818 46.8618V46.8693Z" fill="white" style="fill:white;fill-opacity:1;"/>
<path d="M121.869 143.648C122.102 143.498 122.228 143.397 122.366 143.33C123.09 142.981 123.205 143.006 123.566 143.708C124.309 145.152 125.028 146.606 125.768 148.053C127.227 150.898 128.696 153.739 130.157 156.584C130.493 157.239 130.814 157.898 131.16 158.595C130.849 158.793 130.666 158.946 130.456 159.039C129.781 159.339 129.538 159.259 129.21 158.625C128.666 157.572 128.139 156.514 127.598 155.459C126.537 153.385 125.469 151.317 124.409 149.246C123.639 147.745 122.864 146.245 122.125 144.731C121.962 144.4 121.944 143.999 121.867 143.653L121.869 143.648Z" fill="white" style="fill:white;fill-opacity:1;"/>
<path d="M60.624 46.9442C61.3185 45.7935 61.9251 45.7383 62.6873 46.7612C63.6851 48.0974 64.6277 49.4737 65.6129 50.82C66.6884 52.2891 67.804 53.7306 68.8695 55.2072C69.8146 56.5184 70.7272 57.8546 71.6272 59.1958C72.0459 59.8176 71.9782 60.3766 71.5244 60.6449C71.0355 60.9332 70.7598 60.8254 70.2709 60.151C68.1074 57.1652 65.9489 54.1768 63.7778 51.196C62.7349 49.762 61.6669 48.3456 60.6265 46.9442H60.624Z" fill="white" style="fill:white;fill-opacity:1;"/>
<path d="M131.204 40.9705C130.758 41.9207 130.382 42.773 129.965 43.6029C128.677 46.1725 127.381 48.7397 126.069 51.2993C125.282 52.8386 124.483 54.3729 123.648 55.8896C123.495 56.1654 123.174 56.4787 122.891 56.5264C122.134 56.6517 121.735 56.03 122.071 55.2954C122.429 54.5107 122.823 53.7386 123.217 52.9715C124.776 49.9205 126.338 46.8745 127.905 43.8285C128.283 43.0939 128.664 42.3619 129.08 41.6474C129.687 40.607 129.702 40.6145 131.204 40.9705Z" fill="white" style="fill:white;fill-opacity:1;"/>
<path d="M72.2766 139.851C68.7869 144.511 65.4827 149.327 61.9127 153.987C61.4439 153.757 61.0979 153.584 60.6667 153.371C60.7018 153.14 60.6667 152.834 60.7921 152.629C61.1882 151.987 61.6319 151.37 62.0832 150.763C63.4971 148.856 64.9211 146.955 66.3426 145.055C67.1273 144.005 67.9295 142.967 68.7041 141.911C69.1679 141.28 69.5991 140.625 70.0303 139.971C70.7473 138.885 71.1735 138.835 72.2766 139.851Z" fill="white" style="fill:white;fill-opacity:1;"/>
<path d="M91.7559 148.077C92.0442 148.054 92.3175 148.009 92.5882 148.011C93.5308 148.024 93.6236 148.177 93.3027 149.064C93.2225 149.285 93.1673 149.518 93.1397 149.751C92.9392 151.441 92.859 153.153 92.518 154.813C92.2247 156.237 92.0743 157.678 91.781 159.087C91.4901 160.484 91.2745 161.867 91.1718 163.284C91.1216 163.981 90.896 164.665 90.728 165.462H89.3592C89.2288 164.535 89.2088 163.62 89.4194 162.665C89.6651 161.552 89.7277 160.398 89.9183 159.273C90.0938 158.232 90.3445 157.204 90.5425 156.167C90.6829 155.429 90.8183 154.687 90.9085 153.943C91.0289 152.958 91.069 151.965 91.2069 150.982C91.3372 150.055 91.5503 149.139 91.7559 148.071V148.077Z" fill="white" style="fill:white;fill-opacity:1;"/>
<path d="M80.6763 36.728C81.125 38.2773 81.4635 39.5634 81.8746 40.8295C82.3835 42.3913 82.9752 43.9231 83.4891 45.4824C84.2387 47.7563 84.9482 50.0401 85.6752 52.319C85.9209 53.0886 85.8231 53.4396 85.3092 53.6126C84.7251 53.8106 84.2939 53.59 84.0582 52.8755C83.3362 50.6794 82.6668 48.4657 81.9373 46.2721C80.9771 43.3791 79.9818 40.4985 78.9966 37.613C78.8687 37.2344 78.9791 36.9386 79.3375 36.8559C79.7763 36.7531 80.2401 36.7631 80.6763 36.728Z" fill="white" style="fill:white;fill-opacity:1;"/>
<path d="M69.8242 40.837C70.2028 40.7818 70.5863 40.7267 71 40.6665C72.6145 43.8604 74.2014 47.0192 75.8084 50.1655C76.5429 51.602 77.3301 53.0109 78.0797 54.4399C78.531 55.3023 78.5185 55.3098 78.348 56.4705H77.0694C75.5677 53.4571 74.0761 50.4212 72.5468 47.4028C71.7822 45.8936 70.9398 44.4245 70.1401 42.9303C69.7992 42.2935 69.5134 41.6417 69.8242 40.837Z" fill="white" style="fill:white;fill-opacity:1;"/>
<path d="M53.9224 147.369C52.7015 146.582 52.6489 146.231 53.4937 145.386C56.7854 142.099 60.0746 138.813 63.3662 135.528C63.7874 135.107 64.2086 134.686 64.6448 134.28C65.0083 133.944 65.5649 133.987 65.9108 134.338C66.317 134.749 66.2016 135.1 65.8356 135.466C64.547 136.762 63.271 138.073 61.9799 139.369C60.3253 141.031 58.6656 142.683 57.001 144.335C55.9907 145.338 54.9678 146.334 53.9174 147.366L53.9224 147.369Z" fill="white" style="fill:white;fill-opacity:1;"/>
<path d="M119.893 36.753C120.259 36.7229 120.417 36.6878 120.572 36.7004C121.345 36.758 121.61 37.0789 121.387 37.7708C120.582 40.2703 119.758 42.7623 118.938 45.2567C118.181 47.5606 117.421 49.862 116.674 52.1685C116.541 52.5771 116.458 53.0033 116.331 53.5072C116.17 53.5473 115.947 53.6476 115.726 53.6501C114.967 53.6576 114.676 53.3668 114.824 52.6298C114.994 51.7849 115.243 50.9501 115.506 50.1278C116.04 48.4606 116.596 46.8035 117.158 45.1464C117.822 43.1859 118.512 41.2355 119.166 39.27C119.437 38.4553 119.645 37.6204 119.893 36.7555V36.753Z" fill="white" style="fill:white;fill-opacity:1;"/>
<path d="M135.406 65.9997C134.27 65.1899 134.195 64.9292 134.987 64.0793C136.128 62.8559 137.333 61.6977 138.509 60.5094C140.272 58.7344 142.027 56.9519 143.797 55.1845C144.529 54.4525 145.286 53.748 146.033 53.036C146.424 52.6625 146.827 52.5397 147.306 52.9182C147.795 53.3018 147.868 53.545 147.452 53.9962C146.858 54.6405 146.226 55.2497 145.604 55.8664C143.739 57.7191 141.869 59.5667 140.003 61.4169C138.482 62.9261 136.965 64.4403 135.403 65.9972L135.406 65.9997Z" fill="white" style="fill:white;fill-opacity:1;"/>
<path d="M107.166 148.048H108.752C108.998 149.71 109.159 151.385 109.515 153.017C109.733 154.015 109.585 155.063 110.066 156.036C110.332 156.572 110.292 157.262 110.382 157.883C110.54 158.971 110.683 160.062 110.848 161.147C111.001 162.16 111.187 163.165 111.335 164.178C111.392 164.564 111.385 164.958 111.415 165.484C110.911 165.517 110.495 165.545 110.124 165.567C109.617 165.118 109.512 164.617 109.459 164.03C109.357 162.895 109.126 161.772 108.963 160.643C108.805 159.558 108.767 158.442 108.489 157.389C108.045 155.712 108.133 153.97 107.634 152.288C107.251 150.992 107.316 149.563 107.168 148.051L107.166 148.048Z" fill="white" style="fill:white;fill-opacity:1;"/>
<path d="M147.822 146.131C147.526 146.489 147.285 146.843 146.982 147.133C146.714 147.389 146.438 147.329 146.157 147.046C144.259 145.12 142.351 143.205 140.436 141.295C138.746 139.607 137.044 137.933 135.347 136.25C135.149 136.055 134.938 135.869 134.76 135.654C134.352 135.162 134.387 134.724 134.843 134.31C135.254 133.937 135.477 133.982 136.009 134.508C139.536 138.015 143.063 141.523 146.596 145.025C146.957 145.383 147.35 145.707 147.819 146.128L147.822 146.131Z" fill="white" style="fill:white;fill-opacity:1;"/>
<path d="M93.4303 51.5117C93.2698 51.5443 93.0768 51.5619 92.8988 51.622C91.6328 52.0407 91.6879 52.0382 91.5751 50.6769C91.4874 49.634 91.2291 48.6036 91.0687 47.5657C90.9057 46.5153 90.7904 45.4599 90.6199 44.4119C90.4419 43.3289 90.2113 42.2559 90.0233 41.1754C89.8678 40.2829 89.7224 39.3854 89.6096 38.4854C89.4492 37.1993 89.3238 35.9107 89.1709 34.5068H90.8105C91.0286 36.1514 91.2241 37.7835 91.4673 39.408C91.6252 40.4559 91.8659 41.4888 92.0464 42.5317C92.2344 43.6097 92.3899 44.6927 92.5654 45.7732C92.7358 46.8186 92.9214 47.8641 93.0818 48.912C93.2046 49.7167 93.2999 50.5265 93.4328 51.5117H93.4303Z" fill="white" style="fill:white;fill-opacity:1;"/>
<path d="M66.1477 64.5532C66.2555 65.3429 65.6789 65.5911 65.0496 65.9672C64.7939 65.709 64.5282 65.4357 64.2599 65.17C60.6148 61.5524 56.9696 57.9348 53.322 54.3172C52.8456 53.8434 52.803 53.4373 53.2142 53.0236C53.6704 52.5623 53.9838 52.5548 54.5378 53.1013C56.1197 54.6707 57.6791 56.2626 59.2535 57.842C61.2766 59.8727 63.3023 61.9034 65.3379 63.924C65.5811 64.1672 65.882 64.3527 66.1502 64.5557L66.1477 64.5532Z" fill="white" style="fill:white;fill-opacity:1;"/>
<path d="M108.706 52.0058C108.112 51.7802 107.719 51.6298 107.283 51.4643C107.235 50.6947 107.298 49.9526 107.471 49.1529C107.847 47.4231 107.942 45.6356 108.21 43.8807C108.363 42.8829 108.644 41.9052 108.837 40.9124C108.987 40.1403 109.11 39.3606 109.208 38.5784C109.321 37.6759 109.426 36.7684 109.476 35.8608C109.549 34.5021 109.857 34.2639 111.349 34.5647C111.369 34.7477 111.427 34.9483 111.404 35.1363C111.229 36.5452 111.066 37.9592 110.835 39.3581C110.677 40.3158 110.391 41.2534 110.216 42.2085C110.025 43.2489 109.897 44.3019 109.734 45.3473C109.559 46.4704 109.371 47.5885 109.198 48.7116C109.037 49.7495 108.887 50.7899 108.706 52.0058Z" fill="white" style="fill:white;fill-opacity:1;"/>
<path d="M99.6133 33.5263C100.11 33.5038 100.493 33.4862 100.864 33.4712C101.133 34.4414 101.173 49.8894 100.919 51.1605H99.6158V33.5263H99.6133Z" fill="white" style="fill:white;fill-opacity:1;"/>
<path d="M99.6581 148.763H100.876C101.117 149.658 101.18 164.582 100.949 166.109H99.7258C99.4926 165.229 99.4249 150.432 99.6581 148.763Z" fill="white" style="fill:white;fill-opacity:1;"/>
<path d="M58.2096 130.239V131.507C56.4422 132.761 54.6547 134.007 52.8948 135.285C51.2578 136.476 49.6407 137.697 48.0237 138.915C47.3443 139.427 46.7502 139.495 46.4694 139.046C46.1736 138.572 46.3842 137.983 46.9733 137.547C49.2271 135.877 51.4658 134.187 53.7296 132.533C54.7525 131.786 55.843 131.131 56.8584 130.377C57.272 130.071 57.638 130.051 58.2046 130.239H58.2096Z" fill="white" style="fill:white;fill-opacity:1;"/>
<path d="M143.445 130.432C143.994 130.741 144.533 130.981 144.999 131.317C147.93 133.436 150.843 135.577 153.764 137.705C154.466 138.216 154.566 138.51 154.16 139.001C153.776 139.462 153.237 139.47 152.698 139.071C150.114 137.166 147.524 135.271 144.934 133.368C144.518 133.062 144.12 132.726 143.688 132.443C142.608 131.733 142.603 131.743 143.443 130.43L143.445 130.432Z" fill="white" style="fill:white;fill-opacity:1;"/>
<path d="M53.5294 64.932C53.7225 65.4735 53.5344 65.9072 53.0857 66.1704C52.6595 66.4211 52.2759 66.208 51.8974 65.9247C50.4458 64.8342 48.9692 63.7712 47.5051 62.6957C47.2168 62.4852 46.926 62.2746 46.6628 62.0314C46.3118 61.708 46.2341 61.0411 46.5249 60.7503C46.8759 60.3968 47.2419 60.3693 47.6831 60.7002C49.2951 61.9136 50.9347 63.0918 52.5667 64.2802C52.8826 64.5108 53.2135 64.7214 53.5294 64.9345V64.932Z" fill="white" style="fill:white;fill-opacity:1;"/>
<path d="M147.301 66.1729C147.188 65.7943 147.08 65.4208 146.95 64.9846C148.477 63.874 149.973 62.7859 151.468 61.6929C151.851 61.4121 152.207 61.0912 152.601 60.8255C153.117 60.4745 153.696 60.5372 154.11 60.9458C154.509 61.3394 154.486 61.6327 154.012 61.9787C152.19 63.3049 150.354 64.6085 148.549 65.9598C148.146 66.2606 147.79 66.3183 147.298 66.1729H147.301Z" fill="white" style="fill:white;fill-opacity:1;"/>
<rect x="86" y="63" width="31.806" height="20" rx="10" fill="white" style="fill:white;fill-opacity:1;"/>
<path d="M90.4751 78.0981V68.6977H92.4683V76.452H96.2812V78.0981H90.4751Z" fill="#4D6AD6" style="fill:#4D6AD6;fill:color(display-p3 0.3020 0.4157 0.8392);fill-opacity:1;"/>
<path d="M99.7276 70.9095V78.0981H97.7665V70.9095H99.7276ZM98.7503 68.0933C99.0418 68.0933 99.2925 68.1618 99.5026 68.299C99.7126 68.4319 99.8176 68.6827 99.8176 69.0513C99.8176 69.4157 99.7126 69.6686 99.5026 69.81C99.2925 69.9472 99.0418 70.0158 98.7503 70.0158C98.4545 70.0158 98.2016 69.9472 97.9916 69.81C97.7858 69.6686 97.6829 69.4157 97.6829 69.0513C97.6829 68.6827 97.7858 68.4319 97.9916 68.299C98.2016 68.1618 98.4545 68.0933 98.7503 68.0933Z" fill="#4D6AD6" style="fill:#4D6AD6;fill:color(display-p3 0.3020 0.4157 0.8392);fill-opacity:1;"/>
<path d="M104.82 76.6642C105.034 76.6642 105.242 76.6428 105.444 76.5999C105.649 76.557 105.853 76.5035 106.055 76.4392V77.8987C105.845 77.993 105.583 78.0702 105.27 78.1302C104.961 78.1945 104.623 78.2267 104.254 78.2267C103.826 78.2267 103.44 78.1581 103.097 78.0209C102.758 77.8794 102.49 77.6373 102.293 77.2943C102.1 76.9471 102.004 76.4649 102.004 75.8476V72.382H101.065V71.5525L102.145 70.8967L102.711 69.3792H103.965V70.9095H105.977V72.382H103.965V75.8476C103.965 76.122 104.042 76.3277 104.196 76.4649C104.355 76.5978 104.563 76.6642 104.82 76.6642Z" fill="#4D6AD6" style="fill:#4D6AD6;fill:color(display-p3 0.3020 0.4157 0.8392);fill-opacity:1;"/>
<path d="M110.478 70.7745C111.143 70.7745 111.715 70.9031 112.195 71.1603C112.675 71.4132 113.046 71.7818 113.307 72.2662C113.569 72.7506 113.7 73.3421 113.7 74.0408V74.9925H109.064C109.085 75.5454 109.25 75.9805 109.559 76.2977C109.872 76.6106 110.305 76.7671 110.858 76.7671C111.316 76.7671 111.736 76.7199 112.118 76.6256C112.499 76.5313 112.892 76.3899 113.295 76.2013V77.7187C112.939 77.8945 112.566 78.023 112.176 78.1045C111.79 78.1859 111.321 78.2267 110.768 78.2267C110.047 78.2267 109.409 78.0938 108.852 77.828C108.299 77.5622 107.863 77.1572 107.546 76.6128C107.233 76.0684 107.077 75.3825 107.077 74.5552C107.077 73.7151 107.218 73.0164 107.501 72.4591C107.788 71.8976 108.187 71.4775 108.697 71.1989C109.207 70.916 109.801 70.7745 110.478 70.7745ZM110.491 72.1698C110.11 72.1698 109.792 72.2919 109.54 72.5363C109.291 72.7806 109.147 73.1642 109.109 73.6872H111.861C111.856 73.3957 111.803 73.1364 111.7 72.9092C111.601 72.682 111.451 72.502 111.25 72.3691C111.053 72.2362 110.8 72.1698 110.491 72.1698Z" fill="#4D6AD6" style="fill:#4D6AD6;fill:color(display-p3 0.3020 0.4157 0.8392);fill-opacity:1;"/>
<path d="M33.5088 95.8779C32.292 95.8779 31.2119 96.1172 30.2686 96.5957C29.3389 97.0605 28.5527 97.7373 27.9102 98.626C27.2812 99.5146 26.8027 100.588 26.4746 101.846C26.1465 103.104 25.9824 104.519 25.9824 106.091C25.9824 108.21 26.2422 110.021 26.7617 111.525C27.2949 113.016 28.1152 114.157 29.2227 114.95C30.3301 115.729 31.7588 116.119 33.5088 116.119C34.7256 116.119 35.9424 115.982 37.1592 115.709C38.3896 115.436 39.7227 115.046 41.1582 114.54V119.872C39.832 120.419 38.5264 120.809 37.2412 121.041C35.9561 121.287 34.5137 121.41 32.9141 121.41C29.8242 121.41 27.2812 120.774 25.2852 119.503C23.3027 118.218 21.833 116.427 20.876 114.13C19.9189 111.819 19.4404 109.126 19.4404 106.05C19.4404 103.78 19.748 101.702 20.3633 99.8154C20.9785 97.9287 21.8809 96.2949 23.0703 94.9141C24.2598 93.5332 25.7295 92.4668 27.4795 91.7148C29.2295 90.9629 31.2393 90.5869 33.5088 90.5869C34.999 90.5869 36.4893 90.7783 37.9795 91.1611C39.4834 91.5303 40.9189 92.043 42.2861 92.6992L40.2354 97.8672C39.1143 97.334 37.9863 96.8691 36.8516 96.4727C35.7168 96.0762 34.6025 95.8779 33.5088 95.8779ZM65.2549 112.674C65.2549 114.451 64.8242 115.996 63.9629 117.309C63.1016 118.621 61.8438 119.633 60.1895 120.344C58.5488 121.055 56.5527 121.41 54.2012 121.41C53.1621 121.41 52.1436 121.342 51.1455 121.205C50.1611 121.068 49.2109 120.87 48.2949 120.61C47.3926 120.337 46.5312 120.002 45.7109 119.605V113.699C47.1328 114.328 48.6094 114.896 50.1406 115.401C51.6719 115.907 53.1895 116.16 54.6934 116.16C55.7324 116.16 56.5664 116.023 57.1953 115.75C57.8379 115.477 58.3027 115.101 58.5898 114.622C58.877 114.144 59.0205 113.597 59.0205 112.981C59.0205 112.229 58.7676 111.587 58.2617 111.054C57.7559 110.521 57.0586 110.021 56.1699 109.557C55.2949 109.092 54.3037 108.593 53.1963 108.06C52.499 107.731 51.7402 107.335 50.9199 106.87C50.0996 106.392 49.3203 105.811 48.582 105.127C47.8438 104.443 47.2354 103.616 46.7568 102.646C46.292 101.661 46.0596 100.485 46.0596 99.1182C46.0596 97.3271 46.4697 95.7959 47.29 94.5244C48.1104 93.2529 49.2793 92.2822 50.7969 91.6123C52.3281 90.9287 54.1328 90.5869 56.2109 90.5869C57.7695 90.5869 59.2529 90.7715 60.6611 91.1406C62.083 91.4961 63.5664 92.0156 65.1113 92.6992L63.0605 97.6416C61.6797 97.0811 60.4424 96.6504 59.3486 96.3496C58.2549 96.0352 57.1406 95.8779 56.0059 95.8779C55.2129 95.8779 54.5361 96.0078 53.9756 96.2676C53.415 96.5137 52.9912 96.8691 52.7041 97.334C52.417 97.7852 52.2734 98.3115 52.2734 98.9131C52.2734 99.624 52.4785 100.226 52.8887 100.718C53.3125 101.196 53.9414 101.661 54.7754 102.112C55.623 102.563 56.6758 103.09 57.9336 103.691C59.4648 104.416 60.7705 105.175 61.8506 105.968C62.9443 106.747 63.7852 107.67 64.373 108.736C64.9609 109.789 65.2549 111.102 65.2549 112.674ZM82.0713 104.163H93.9658V119.708C92.3936 120.228 90.7598 120.645 89.0645 120.959C87.3691 121.26 85.4482 121.41 83.3018 121.41C80.3213 121.41 77.792 120.822 75.7139 119.646C73.6357 118.471 72.0566 116.734 70.9766 114.438C69.8965 112.141 69.3564 109.317 69.3564 105.968C69.3564 102.823 69.958 100.103 71.1611 97.8057C72.3779 95.5088 74.1484 93.7314 76.4727 92.4736C78.8105 91.2158 81.6611 90.5869 85.0244 90.5869C86.6104 90.5869 88.1758 90.7578 89.7207 91.0996C91.2656 91.4414 92.667 91.8857 93.9248 92.4326L91.8125 97.5186C90.8965 97.0537 89.8506 96.6641 88.6748 96.3496C87.499 96.0352 86.2686 95.8779 84.9834 95.8779C83.1377 95.8779 81.5312 96.3018 80.1641 97.1494C78.8105 97.9971 77.7578 99.1865 77.0059 100.718C76.2676 102.235 75.8984 104.026 75.8984 106.091C75.8984 108.046 76.165 109.782 76.6982 111.3C77.2314 112.804 78.0723 113.986 79.2207 114.848C80.3691 115.695 81.8662 116.119 83.7119 116.119C84.6143 116.119 85.373 116.078 85.9883 115.996C86.6172 115.9 87.2051 115.805 87.752 115.709V109.454H82.0713V104.163ZM125.691 121H119.354V108.06H107.48V121H101.123V91.0176H107.48V102.769H119.354V91.0176H125.691V121ZM153.828 98.0723V121H149.029L148.188 118.067H147.86C147.368 118.847 146.753 119.482 146.015 119.975C145.276 120.467 144.463 120.829 143.574 121.062C142.686 121.294 141.763 121.41 140.806 121.41C139.165 121.41 137.736 121.123 136.52 120.549C135.303 119.961 134.353 119.052 133.669 117.821C132.999 116.591 132.664 114.991 132.664 113.022V98.0723H138.919V111.464C138.919 113.104 139.213 114.342 139.801 115.176C140.389 116.01 141.325 116.427 142.61 116.427C143.882 116.427 144.88 116.14 145.604 115.565C146.329 114.978 146.835 114.123 147.122 113.002C147.423 111.867 147.573 110.486 147.573 108.859V98.0723H153.828ZM166.646 89.0898V96.5137C166.646 97.375 166.618 98.2295 166.563 99.0771C166.522 99.9248 166.468 100.581 166.399 101.046H166.646C167.247 100.103 168.067 99.3027 169.106 98.6465C170.146 97.9766 171.492 97.6416 173.146 97.6416C175.717 97.6416 177.802 98.6465 179.401 100.656C181.001 102.666 181.801 105.612 181.801 109.495C181.801 112.106 181.432 114.301 180.693 116.078C179.955 117.842 178.923 119.175 177.597 120.077C176.271 120.966 174.732 121.41 172.982 121.41C171.301 121.41 169.975 121.109 169.004 120.508C168.033 119.906 167.247 119.229 166.646 118.478H166.215L165.169 121H160.391V89.0898H166.646ZM171.137 102.646C170.043 102.646 169.175 102.871 168.532 103.322C167.89 103.773 167.418 104.45 167.117 105.353C166.83 106.255 166.673 107.396 166.646 108.777V109.454C166.646 111.683 166.974 113.392 167.63 114.581C168.286 115.757 169.482 116.345 171.219 116.345C172.504 116.345 173.522 115.75 174.274 114.561C175.04 113.371 175.423 111.655 175.423 109.413C175.423 107.171 175.04 105.482 174.274 104.348C173.509 103.213 172.463 102.646 171.137 102.646Z" fill="white" style="fill:white;fill-opacity:1;"/>
</g>
<defs>
<clipPath id="clip0_41_2185">
<rect width="200" height="200" rx="50" fill="white" style="fill:white;fill-opacity:1;"/>
</clipPath>
</defs>
</svg>
